<?xml version="1.0" encoding="utf-8"?>
<!-- Generator: Adobe Illustrator 16.0.4, SVG Export Plug-In . SVG Version: 6.00 Build 0)  -->
<!DOCTYPE svg PUBLIC "-//W3C//DTD SVG 1.1//EN" "http://www.w3.org/Graphics/SVG/1.1/DTD/svg11.dtd">
<svg version="1.1" id="レイヤー_1" xmlns="http://www.w3.org/2000/svg" xmlns:xlink="http://www.w3.org/1999/xlink" x="0px"
	 y="0px" width="430px" height="336.999px" viewBox="0 0 430 336.999" enable-background="new 0 0 430 336.999"
	 xml:space="preserve">
<g>
	<path fill="#E71F19" d="M82.721,336.999c35.116,0,66.511-22.327,78.121-55.557c3.692-10.567,11.967-18.896,22.507-22.655
		c4.034-1.438,8.235-2.146,12.419-2.146c6.746,0,13.447,1.844,19.335,5.456c22.115,13.561,47.556,20.729,73.571,20.729
		c77.928,0,141.326-63.438,141.326-141.413S366.602,0,288.674,0c-37.154,0-72.271,14.384-98.884,40.503
		c-26.576,26.085-41.635,60.864-42.401,97.932c-0.231,11.188-5.508,21.671-14.354,28.518c-6.544,5.065-14.524,7.739-22.64,7.739
		c-2.854,0-5.722-0.33-8.552-1.002c-6.237-1.484-12.671-2.234-19.123-2.234C37.108,171.455,0,208.586,0,254.228
		C0,299.867,37.108,336.999,82.721,336.999z"/>
</g>
</svg>
